<mxfile host="Electron" agent="Mozilla/5.0 (Macintosh; Intel Mac OS X 10_15_7) AppleWebKit/537.36 (KHTML, like Gecko) draw.io/26.1.1 Chrome/132.0.6834.210 Electron/34.3.3 Safari/537.36" version="26.1.1">
  <diagram name="Page-1" id="LApm5S2fs6yv4ayrXxhF">
    <mxGraphModel dx="1114" dy="878" grid="1" gridSize="10" guides="1" tooltips="1" connect="1" arrows="1" fold="1" page="1" pageScale="1" pageWidth="827" pageHeight="1169" math="0" shadow="0">
      <root>
        <mxCell id="0" />
        <mxCell id="1" parent="0" />
        <mxCell id="exumcDX2o7ZUChEPNzrl-5" style="edgeStyle=orthogonalEdgeStyle;rounded=0;orthogonalLoop=1;jettySize=auto;html=1;entryX=0;entryY=0.5;entryDx=0;entryDy=0;endArrow=block;endFill=1;" edge="1" parent="1" source="exumcDX2o7ZUChEPNzrl-1" target="exumcDX2o7ZUChEPNzrl-2">
          <mxGeometry relative="1" as="geometry" />
        </mxCell>
        <mxCell id="exumcDX2o7ZUChEPNzrl-1" value="신호" style="ellipse;whiteSpace=wrap;html=1;aspect=fixed;fillColor=#ffe6cc;strokeColor=none;" vertex="1" parent="1">
          <mxGeometry x="160" y="280" width="40" height="40" as="geometry" />
        </mxCell>
        <mxCell id="exumcDX2o7ZUChEPNzrl-6" style="edgeStyle=orthogonalEdgeStyle;rounded=0;orthogonalLoop=1;jettySize=auto;html=1;entryX=0;entryY=0.5;entryDx=0;entryDy=0;endArrow=block;endFill=1;" edge="1" parent="1" source="exumcDX2o7ZUChEPNzrl-2" target="exumcDX2o7ZUChEPNzrl-3">
          <mxGeometry relative="1" as="geometry" />
        </mxCell>
        <mxCell id="exumcDX2o7ZUChEPNzrl-2" value="활성화 함수" style="rounded=0;whiteSpace=wrap;html=1;fillColor=#d5e8d4;strokeColor=none;" vertex="1" parent="1">
          <mxGeometry x="260" y="285" width="80" height="30" as="geometry" />
        </mxCell>
        <mxCell id="exumcDX2o7ZUChEPNzrl-7" style="edgeStyle=orthogonalEdgeStyle;rounded=0;orthogonalLoop=1;jettySize=auto;html=1;entryX=0;entryY=0.5;entryDx=0;entryDy=0;endArrow=block;endFill=1;" edge="1" parent="1" source="exumcDX2o7ZUChEPNzrl-3" target="exumcDX2o7ZUChEPNzrl-4">
          <mxGeometry relative="1" as="geometry" />
        </mxCell>
        <mxCell id="exumcDX2o7ZUChEPNzrl-3" value="가중치&lt;br&gt;X" style="rounded=1;whiteSpace=wrap;html=1;fillColor=#dae8fc;strokeColor=none;" vertex="1" parent="1">
          <mxGeometry x="400" y="280" width="60" height="40" as="geometry" />
        </mxCell>
        <mxCell id="exumcDX2o7ZUChEPNzrl-8" style="edgeStyle=orthogonalEdgeStyle;rounded=0;orthogonalLoop=1;jettySize=auto;html=1;endArrow=block;endFill=1;" edge="1" parent="1" source="exumcDX2o7ZUChEPNzrl-4">
          <mxGeometry relative="1" as="geometry">
            <mxPoint x="660" y="300" as="targetPoint" />
          </mxGeometry>
        </mxCell>
        <mxCell id="exumcDX2o7ZUChEPNzrl-4" value="편향&lt;br&gt;+" style="rounded=1;whiteSpace=wrap;html=1;fillColor=#dae8fc;strokeColor=none;" vertex="1" parent="1">
          <mxGeometry x="520" y="280" width="60" height="40" as="geometry" />
        </mxCell>
        <mxCell id="exumcDX2o7ZUChEPNzrl-9" value="신호" style="ellipse;whiteSpace=wrap;html=1;aspect=fixed;fillColor=#fff2cc;strokeColor=none;" vertex="1" parent="1">
          <mxGeometry x="330" y="250" width="40" height="40" as="geometry" />
        </mxCell>
        <mxCell id="exumcDX2o7ZUChEPNzrl-10" value="신호" style="ellipse;whiteSpace=wrap;html=1;aspect=fixed;fillColor=#e1d5e7;strokeColor=none;" vertex="1" parent="1">
          <mxGeometry x="600" y="250" width="40" height="40" as="geometry" />
        </mxCell>
      </root>
    </mxGraphModel>
  </diagram>
</mxfile>
